<?xml version='1.0' encoding='utf-8'?>
<svg xmlns="http://www.w3.org/2000/svg" enable-background="new 0 0 283.46 283.46" version="1.1" viewBox="0 0 283.46 283.46"> <path d="m67.897 227.26 5e-3 0.064c0.035 0.305 0.915 7.236 6.37 15.662l-0.162-0.037 0.966 1.406c1.141 1.66 2.414 3.287 3.782 4.838 5.371 6.074 21.7 9.156 48.541 9.156 3.772 0 7.012-0.061 9.375-0.102 1.329-0.027 2.379-0.045 3.063-0.045 0.687 0 1.735 0.018 3.064 0.045 2.362 0.041 5.602 0.102 9.378 0.102 26.837 0 43.167-3.082 48.539-9.156 1.356-1.539 2.624-3.158 3.762-4.809l0.918-1.334-0.156 0.029c5.511-8.469 6.395-15.451 6.43-15.756l0.426-31.285v-30.945c-0.433 0.545-0.764 0.961-0.764 0.961-1.742 1.811-4.257 3.764-4.283 3.785l-0.26 0.197v16.061h4.106l-0.558 41.098h-3e-3c-0.07 0.521-1.155 7.834-6.94 16.232-21.326 4.16-43.177 6.27-64.941 6.27h-6e-3c-31.306 0-53.872-4.346-62.385-6.285-5.777-8.395-6.861-15.701-6.933-16.217l-0.557-41.098h4.631v-16.061l-0.26-0.197c-0.032-0.027-3.12-2.422-4.819-4.359v-0.033l-0.176-0.174c-0.234-0.281-0.488-0.988-0.713-1.766v22.59l0.56 41.163z"/> <path d="m88.073 170.5c14.009 2.939 32.621 4.561 52.416 4.561 19.106 0 37.249-1.521 51.094-4.289 7.32-1.461 15.828-3.752 20.332-7.033l0.283-0.16v-6.379h-144.86v3.932c4.938 2.784 14.014 7.96 20.736 9.368z"/> <polygon points="212.2 159.74 67.337 160.75 67.337 173.7 68.675 186.1 67.903 227.33 75.21 243.66 124.24 253.88 195.81 249.62 203.5 243.43 206.32 240.14 209.91 232.22 211.16 227.18 211 186.1 212.2 177.52"/> <path d="m75.974 166.5s-1.462 53.504 0 60.656c1.461 7.152 0.616 5.596 3.985 10.09 3.131 4.178 7.267 8.041 9.359 8.916s-2.021-7.684-2.021-7.684-1.418-4.291-4.354-12.535c-3.854-10.822-2.546-59.443-2.546-59.443h-4.423z" fill="#fff"/> <path d="m42.045 167.42-0.291-0.057-0.265 0.121c-3.101 1.439-4.66 3.33-4.633 5.617 0.049 4.166 5.5 9.486 16.204 15.814 7.264 4.297 14.596 7.629 15.707 8.129v-24.488c-10.562-1.831-26.501-5.091-26.722-5.136z"/> <path d="m210.72 172.56v24.488c1.11-0.5 8.442-3.832 15.706-8.129 10.704-6.328 16.155-11.648 16.204-15.814 0.026-2.287-1.532-4.178-4.633-5.617l-0.266-0.121-0.29 0.057c-0.22 0.044-16.16 3.304-26.721 5.136z"/> <path d="m55.426 97.6c-0.533 0.222-0.726 0.853-0.526 1.452 0 0 3.251 13.644 5.539 18.937 2.177 5.03 6.658 11.235 8.386 11.795 1.706 0.556 2.993 0.436 4.205 0.198 6.692 13.27 10.042 23.941 13.315 33.242 1.724 4.885 13.73 39.811 14.757 42.416 1.127 2.848 4.551 4.076 7.451 2.871 2.897-1.207 4.439-4.506 3.21-7.311-1.123-2.564-17.449-35.693-19.698-40.355-4.297-8.877-9.509-18.773-14.208-32.872 1.023-0.694 2.013-1.522 2.822-3.123 0.816-1.62-0.429-9.173-2.463-14.262-2.144-5.351-9.536-17.273-9.536-17.273-0.282-0.564-0.866-0.873-1.402-0.651l-0.063 0.027 7.624 18.314c0.242 0.581 0.122 1.18-0.271 1.343-0.394 0.165-0.903-0.173-1.146-0.754l-8.146-18.097-1.027 0.429 7.102 18.531c0.225 0.589 0.122 1.181-0.272 1.344-0.394 0.165-0.903-0.173-1.146-0.754l-8.148-18.096-0.861 0.359 7.099 18.531c0.226 0.589 0.122 1.181-0.27 1.344-0.395 0.165-0.904-0.172-1.146-0.754l-8.15-18.095-1.023 0.426 7.1 18.532c0.225 0.589 0.12 1.181-0.272 1.344-0.394 0.165-0.903-0.173-1.145-0.753l-7.625-18.315-0.066 0.03z"/> <path d="m194.82 78.626c-6.604-1.292-13.803 7.095-16.081 18.731-1.941 9.941 1.192 14.845 6.305 17.999-1.807 14.166-4.833 24.603-7.203 33.908-1.273 5.021-10.648 40.744-11.237 43.48-0.644 2.994 1.524 5.916 4.607 6.52 3.079 0.604 6.191-1.285 6.725-4.303 0.485-2.756 5.269-39.377 5.983-44.508 1.313-9.518 2.445-20.331 6.114-34.14 5.918-0.995 10.666-4.344 12.618-14.277 2.279-11.64-1.227-22.12-7.831-23.412v2e-3z"/> <path d="m229.32 94.702c1.294-2.816 1.729-7.578-0.17-8.449-2.685-1.232-3.648 0.867-3.966 1.555l-22.492 48.966c-0.094 0.204-0.133 0.419-0.13 0.627-2.425 4.806-4.774 9.078-6.919 13.128-2.416 4.578-19.93 37.098-21.145 39.619-1.33 2.758 0.09 6.109 2.943 7.42 2.854 1.313 6.321 0.207 7.55-2.6 1.121-2.564 14.381-37.037 16.279-41.855 1.6-4.066 3.229-8.41 5.171-13.114 2.834 0.639 5.019 0.606 7.699-5.455l15.18-39.842z"/> <path d="m100.82 44.677c10.191-2.092 16.701 4.057 20.548 10.979 3.751 6.756 6.58 17.583 6.788 28.002 0.19 9.57-1.54 18.411-3.598 26.245-1.784 6.779-4.127 13.761-6.687 20.216-0.401 1.014-1.033 2.033-1.075 2.769-0.091 1.651 0.479 3.944 0.743 6.126 0.499 4.111 0.986 8.125 1.485 12.253 0.251 2.07 0.276 4.25 0.747 6.129 0.299 1.211 1.316 1.379 1.738 2.707 0.634 1.992 0.652 4.58 0.949 7.043 1.697 13.98 3.451 28.438 5.204 42.889 0.459 3.795 1.566 7.518-0.994 8.881-1.703 0.906-6.344 1.033-7.424 0.146-2.013-1.654-2.169-9.334-2.689-13.615-1.485-12.242-2.973-24.508-4.448-36.668-0.3-2.457-0.907-5.025-0.787-7.252 0.092-1.664 0.969-1.662 1.044-3.045 0.102-1.84-0.502-4.15-0.754-6.219-0.511-4.197-0.981-8.082-1.498-12.348-0.256-2.1-0.245-4.381-0.744-6.126-0.194-0.691-1.038-1.714-1.626-2.535-3.881-5.407-7.787-11.505-11.069-17.497-3.688-6.727-7.405-14.689-9.68-23.882-2.345-9.459-2.636-20.388-0.884-28.246 1.761-7.901 5.694-15.098 14.711-16.952zm6.52 21.157c-1.16-6.987-2.105-13.934-4.636-19.593-0.059 0-0.113-3e-3 -0.103-0.083-0.016-0.057-0.029-0.107-0.106-0.083-0.191 0.434-0.396 1.092-0.469 1.565-0.447 2.936-0.211 6.296-0.047 9.708 1.15 23.921 6.096 50.981 10.724 72.078-0.919-20.019-1.779-42.038-5.363-63.592zm1.542 0.285c3.109 21.315 4.717 43.311 5.413 62.457 1.438-12.264 2.841-25.669 2.082-40.287-0.563-10.854-2.385-23.158-5.508-32.207-1.385-4.015-3.254-7.963-6.261-9.695-7e-3 -0.053-0.089-0.096-0.096 0.011 2.214 5.651 3.354 12.732 4.37 19.721zm-5.288 22.401c-1.722-14.192-4.028-28.96-2.958-41.464-0.028-0.071-0.025-0.183-0.116-0.174-0.824 0.697-1.657 2.056-2.076 3.077-2.144 5.255-2.102 12.284-1.809 19.248 0.965 22.973 7.724 43.063 14.339 59.959-2.448-12.856-5.675-26.592-7.38-40.646zm-12.932-22.733c-0.492 7.425 0.08 16.14 1.988 24.156 3.624 15.208 10.01 27.545 16.399 38.891-4.332-11.364-8.787-24.817-11.63-39.187-1.477-7.475-2.118-15.415-2.376-22.697-0.257-7.249 0.327-14.041 2.577-19.151-4.761 3.987-6.46 10.526-6.958 17.988zm24.177-1.05c4.977 22.686 3.306 45.251 1.172 63.252 3.358-12.559 6.749-26.078 6.636-41.592-0.06-8.245-1.59-17.028-3.854-24.023-2.295-7.079-5.488-13.117-11.139-15.698-4e-3 -0.052-0.088-0.094-0.091 0.012 3.742 4.303 5.727 10.996 7.276 18.049zm9.275 19.786c0.509 13.47-2.156 25.495-4.457 36.241 3.384-10.979 7.059-22.791 6.943-36.73-0.066-7.586-1.71-15.169-3.823-21.392-2.098-6.188-5.495-11.348-9.818-14.162 6.872 7.456 10.616 21.682 11.155 36.043zm-36.911-1.455c1.032 8.337 3.833 15.375 6.786 21.781 3.004 6.521 6.305 12.523 9.899 17.923-4.985-9.98-10.424-20.782-13.077-34.021-2.816-14.074-2.874-28.49 2.016-37.734 0.052-6e-3 0.097-0.088-0.012-0.091-6.192 7.348-7.226 19.109-5.612 32.142z" clip-rule="evenodd" fill-rule="evenodd"/> <path d="m147.72 210.93c-1.242-0.09-2.483-0.178-3.725-0.268-7.096-2.941-3.698-10.949-2.567-19.305 1.829-13.506 3.7-28.484 4.687-42.271 1.419-19.824 4.841-39.102 4.305-57.261-6.43-3.771-12.129-8.262-14.031-15.97-0.618-2.499-0.505-5.629-0.637-8.566-0.35-8.001-0.948-17.339-1.045-26.055 0.198-2.757 0.395-5.514 0.593-8.27 1.357-6.496 8.67-6.11 14.843-7.044 5.929 0.423 11.856 0.847 17.784 1.272 5.919 1.787 13.141 2.449 13.706 8.879-0.212 2.962-0.425 5.926-0.636 8.89-1.073 5.036-1.856 11.537-3.103 17.237-1.275 5.823-1.653 11.742-3.46 16.378-1.513 3.884-4.655 7.311-7.533 9.438-2.631 1.945-5.646 2.781-8.421 4.385-1.577 4.214-1.472 8.962-1.802 13.589-2.07 28.947-3.587 57.912-3.627 85.58-0.012 8.123 2.188 17.75-5.331 19.362zm1.299-9.469c-4.432-5.115-9.275 6.621-1.832 5.271 2.15-0.386 3.477-3.373 1.832-5.271zm13.413-158.45c-0.737 8.033-2.011 17.636-2.766 24.118-0.295 2.53-0.581 4.431 1.298 5.082 2.346-0.699 2.029-3.991 2.367-6.896 0.97-8.379 3.011-19.951 3.428-27.605-3.085-4.054-3.881 0.383-4.327 5.301zm-8.763 20.781c-0.188 2.654-1.049 7.737 1.299 7.99 2.81 0.303 2.179-5.876 2.527-9.171 0.605-5.701 1.2-13.875 1.614-19.631 0.252-3.539 1.133-7.332-0.62-8.771-1.424-0.151-1.888 0.805-2.794 1.253-0.929 8.803-1.346 18.823-2.026 28.33zm-2.688-3.102c0.095-2.873 0.071-5.995 0.223-8.921 0.346-6.663 1.095-13.239-0.664-16.884-4.257 0.402-2.753 6.67-2.909 11.641-0.112 3.512-0.345 7.519-0.341 10.575 4e-3 4.36-0.585 13.127 1.491 14.03 2.898 0.14 2.071-6.526 2.2-10.441zm20.447-21.4c-1.745 0.202-1.787 4.908-2.217 7.74-0.927 6.084-2.027 11.685-2.914 17.458-0.491 3.205-1.762 9.228 1.331 7.576 1.486-1.49 1.708-6.076 2.317-9.186 1.375-7.023 2.542-15.236 3.65-21.977-0.436-0.022-1.038-1.743-2.167-1.611zm-26.858 23.851c-0.035-6.051-0.26-11.178-0.263-16.645-2e-3 -3.504 0.404-7.2-1.211-9.233-3.343 0.306-2.427 4.266-2.379 7.105 0.113 6.362 0.137 11.864 0.544 18.536 0.166 2.714-0.297 7.825 2.142 7.844 1.866-1.038 1.186-4.539 1.167-7.607z" clip-rule="evenodd" fill-rule="evenodd"/> </svg>