<?xml version='1.0' encoding='utf-8'?>
<svg xmlns="http://www.w3.org/2000/svg" version="1.1" width="720px" height="1358px" viewBox="0 0 720 1358"> <g id="layer1"> <g style="fill:rgb(255,192,160); fill-opacity:1.0; stroke-linejoin: miter"> <path d="M847.3434,822.61566L847.2239,825.6326Q846.3522,849.9001,843.55725,858.38495Q842.9237,860.6066,842.15247,862.6016Q841.84595,863.7403,839.5508,868.07733Q836.6492,873.0433,832.79675,875.99005Q828.18054,880.69257,808.6223,883.4722Q805.8771,883.73016,805.17725,882.9628Q804.2817,882.38007,805.64404,879.11774L803.2747,878.293L803.45917,874.1683Q810.3689,872.0782,812.75073,870.11835Q815.7284,868.1972,818.8562,862.32916Q819.7151,860.73956,821.5503,856.7203L822.7699,842.1711L815.7626,840.4322Q813.6837,849.0485,811.35254,854.1777Q808.5543,860.0827,804.7891,863.0433Q802.1697,865.0441,799.96454,864.3503Q798.00964,863.6657,797.90265,860.91144Q797.8926,859.50006,798.6817,857.27496L802.98883,847.2525Q803.3177,846.57697,804.4989,843.1242L808.0619,830.4548L809.46814,826.1485Q810.92896,821.8344,815.4514,811.6152L847.3434,822.61566"/> </g> <g style="fill:rgb(0,0,0); fill-opacity:1.0; stroke-linejoin: miter"> <path d="M629.9818,441.74002L628.57025,440.5745Q619.0224,433.11087,616.4801,426.71017Q613.93054,421.1086,616.82355,407.48148L650.85706,386.00574L694.0028,385.07587Q700.1997,393.77768,701.5828,400.58755Q703.27203,406.95865,703.21985,424.61874L629.9818,441.74002"/> </g> <g style="fill:rgb(0,0,0); fill-opacity:1.0; stroke-linejoin: miter"> <path d="M760.761,668.46747L773.8056,628.26996L797.85095,707.57904Q799.2228,729.39825,803.78485,745.75946Q807.75104,759.1694,816.52936,778.84827L811.3136,814.7801L848.85913,824.28644L855.3222,785.22766Q858.497,709.4195,856.9936,690.10516Q855.0623,657.48553,847.2146,637.0373L819.19775,570.5296L806.8783,535.1253Q803.59344,527.7008,797.3898,521.2449Q778.7056,503.63257,721.90955,484.3912L709.5007,472.23148L644.8563,482.42606L646.2782,491.86417L646.5702,491.59286Q609.4713,519.35266,595.63916,532.6921Q580.0605,547.3647,576.6565,559.6248Q572.48096,559.7785,551.5314,707.742L527.9619,751.53595Q558.2864,754.5518,570.9769,749.19525Q584.38324,745.0479,607.37805,722.95844L760.761,668.46747"/> </g> <g style="fill:rgb(0,0,0); fill-opacity:1.0; stroke-linejoin: miter"> <path d="M770.76807,976.3336L765.3573,1118.0256Q768.5221,1169.6356,767.02625,1186.3783Q766.0799,1204.7378,758.03107,1223.3314L706.5256,1220.0846Q699.56396,1195.9347,699.1529,1173.6355Q698.73346,1163.0354,699.40497,1140.2897L699.9268,1124.9349Q701.249,1102.0695,702.1887,1080.2277Q703.1039,1055.2306,702.9699,1045.9257Q702.7442,1011.0967,697.7546,976.13196L770.76807,976.3336"/> </g> <g style="fill:rgb(0,0,0); fill-opacity:1.0; stroke-linejoin: miter"> <path d="M753.66455,1217.2941L754.7244,1225.0231Q757.6811,1226.8641,758.23456,1229.0802Q758.9531,1231.0653,758.54034,1237.6273Q767.23193,1244.0922,770.83844,1249.3529Q774.2855,1253.6041,781.1584,1269.4016Q783.13525,1273.3643,783.05945,1276.6421Q782.4213,1279.1819,781.7006,1279.4922Q780.8723,1280.3169,779.4168,1280.9326Q775.6176,1282.1597,773.6223,1282.2285Q768.28,1282.7957,760.7237,1282.6243Q749.2163,1282.3093,735.8408,1281.3716Q732.2299,1280.8489,729.13635,1279.7346Q724.77356,1277.7451,724.07086,1274.6724Q723.25073,1273.5496,722.68805,1261.9987Q722.3757,1259.9464,721.5523,1258.974Q720.12915,1257.2343,716.4799,1257.4779L705.5088,1249.2914Q706.30695,1240.4391,707.0414,1219.2032L753.66455,1217.2941"/> </g> <g style="fill:rgb(0,0,0); fill-opacity:1.0; stroke-linejoin: miter"> <path d="M618.18427,1222.4911L613.96387,1222.538Q583.23553,1224.987,557.17957,1210.762Q555.4274,1196.4631,556.6446,1186.6471Q556.6878,1185.6105,557.73676,1178.9357Q564.412,1143.0986,565.556,1134.1367Q568.11993,1117.8394,574.8263,1067.4133L584.9851,964.36694L655.09467,974.532Q644.0107,1048.088,640.9341,1070.6908Q638.3227,1089.7809,638.0499,1092.265Q631.7653,1146.1476,631.2518,1147.3773Q628.4446,1167.1396,618.18427,1222.4911"/> </g> <g style="fill:rgb(0,0,0); fill-opacity:1.0; stroke-linejoin: miter"> <path d="M609.4655,1220.1793L609.52814,1247.6254L595.2511,1257.1497L586.42804,1255.1411Q584.80927,1264.6746,580.0441,1267.5618Q577.1787,1270.3776,564.8376,1272.9203Q547.1516,1275.9762,531.8635,1274.2701Q525.734,1273.4757,521.079,1270.8275Q517.99005,1269.0367,517.7483,1265.9495Q517.53436,1262.853,521.6428,1257.8257Q522.75476,1256.0862,538.9483,1239.4858Q540.0859,1238.3708,545.06946,1232.4299Q551.08124,1225.3181,562.83,1207.6257L609.4655,1220.1793"/> </g> <g style="fill:rgb(255,0,0); fill-opacity:1.0; stroke-linejoin: miter"> <path d="M806.2848,978.7125L798.44257,979.66455Q725.5839,988.62244,692.4685,985.85095Q654.09546,984.501,575.56995,966.5228Q580.0921,854.46735,586.2854,810.7674Q596.47144,740.9465,606.3121,722.66705Q605.68024,712.6751,606.2166,711.2034Q612.0907,691.0328,612.6687,678.8134L613.755,659.73505Q602.80084,632.34015,602.32623,620.608Q601.2285,608.8746,604.57764,597.1502Q606.1769,589.3328,616.9755,565.8923Q624.7731,533.8814,630.2729,518.4779Q634.7585,506.4049,641.0506,495.88577L643.14386,504.74304L628.2848,555.3294Q673.18225,558.35736,719.66016,557.8652Q718.3686,535.8405,716.09705,521.91364Q714.1157,508.50677,706.9016,475.86404L706.55164,470.46848L717.10706,484.77823L719.2818,491.32822Q720.941,496.52145,723.1057,506.76978Q735.10297,574.9766,739.08435,587.73126Q745.548,614.1767,763.67676,659.8984L772.8489,766.37103Q792.8708,837.50714,799.92883,885.867Q805.20306,925.1843,806.2848,978.7125"/> </g> <g style="fill:rgb(255,192,160); fill-opacity:1.0; stroke-linejoin: miter"> <path d="M678.67163,527.56775L678.1795,527.2301Q674.91345,525.2014,673.38403,521.9865Q671.9725,519.25775,670.58704,510.24292Q662.71387,509.5381,658.63135,506.22095Q654.5748,503.43286,646.17017,491.92722L642.9199,472.48447Q634.0577,463.6693,630.4983,451.79462Q625.5948,457.5661,620.2039,449.6302Q613.5091,439.76175,613.5446,434.3477Q613.8832,429.233,617.5658,429.27322Q619.8918,429.21304,624.0105,435.08994L624.77246,427.51083Q621.53217,420.32822,621.09314,415.5826Q620.8609,411.73398,622.1858,406.62204Q639.2481,394.92972,649.4984,391.5425Q659.4421,387.71646,682.76733,384.98254L693.85455,397.3057L699.3852,416.9019Q699.6522,407.97995,701.4401,405.32474Q703.6801,401.05246,706.0803,403.83438Q708.82764,408.27554,709.112,421.81876Q709.1427,431.4597,702.046,433.24197Q705.2188,445.3676,701.7041,452.7329L707.0802,474.98654Q706.76025,476.1736,706.42285,477.36063Q704.44714,485.07736,699.72345,490.3972Q694.92633,495.71664,684.40894,503.3758L686.33936,520.9224L678.67163,527.56775"/> </g> <g style="fill:rgb(255,0,24); fill-opacity:1.0; stroke-linejoin: miter"> <path d="M615.40796,412.54214L606.06244,367.48352L608.78516,365.17664L608.4535,344.8462L634.45337,342.62878Q646.88245,330.22867,653.43164,326.0058Q659.5593,322.48358,663.06537,323.799Q664.0711,323.95776,666.97253,325.2207L673.68097,343.21777L678.91223,346.25946Q680.84357,348.219,682.0298,350.5208Q684.6872,354.68695,697.4782,387.04587Q668.09436,385.3625,654.51514,390.11057Q640.7376,393.86124,615.40796,412.54214"/> </g> <g style="fill:rgb(255,0,0); fill-opacity:0.08627451; stroke-linejoin: miter"> <path d="M643.7722,473.27664L645.80524,474.25775Q658.03394,480.2093,664.5459,481.83313Q670.7832,483.45844,676.3443,481.61075Q677.5589,481.16837,678.7567,480.53204Q679.3661,480.33508,682.31244,478.18683Q684.65784,476.33246,686.9361,473.70248Q690.12463,470.59732,701.2429,452.83777L679.6835,494.72385L643.7722,473.27664"/> </g> <g style="fill:rgb(255,192,160); fill-opacity:1.0; stroke-linejoin: miter"> <path d="M547.0228,751.2436L526.6389,750.9216Q515.12244,740.0113,510.42264,732.9344Q505.5341,726.14703,497.87357,709.32904L516.126,710.0527L520.67786,714.31915L524.6174,709.46747L531.9663,709.50214L533.7527,720.6236L543.7947,707.6705Q553.7218,708.3461,562.59656,706.42194L553.6311,727.7941L554.9544,734.3813L551.72406,743.8591L547.0228,751.2436"/> </g> <g style="fill:rgb(74,68,64); fill-opacity:1.0; stroke-linejoin: miter"> <path d="M586.7755,693.6259L586.1185,695.8875Q581.4474,702.7225,558.78296,706.8204Q535.96173,710.91486,505.03586,710.14105Q475.52112,709.0594,457.82538,703.8107Q452.15546,702.1142,448.4848,700.1136L445.39972,698.0568Q442.85736,695.9339,442.8288,693.6259Q443.6006,686.5434,463.9093,681.8405Q484.21808,677.1375,514.8022,676.9588Q545.3863,677.1375,565.695,681.8405Q586.0038,686.5434,586.7755,693.6259"/> </g> <g style="fill:rgb(255,0,22); fill-opacity:1.0; stroke-linejoin: miter"> <path d="M524.13336,700.8598L522.2865,611.48566L526.72894,610.8359L526.7705,604.4134L534.6564,603.6053L534.3113,593.80585L536.4439,588.3327L538.75214,593.9063L539.49,602.9588L547.784,603.0175L547.531,609.55206L552.6112,609.7126L553.7582,698.6617Q545.81604,702.57135,524.13336,700.8598"/> </g> <g style="fill:rgb(255,236,0); fill-opacity:1.0; stroke-linejoin: miter"> <path d="M483.10895,692.04645L481.26215,602.6722L485.70456,602.0225L485.74606,595.60004L493.63193,594.79193L493.28683,584.9925L495.4194,579.51935L497.72763,585.09283L498.46548,594.14545L506.75955,594.20416L506.5065,600.7387L511.58676,600.89923L512.7337,689.8483Q510.8497,691.4638,499.66824,692.45746Q492.7457,692.80707,483.10895,692.04645"/> </g> </g> </svg>